<svg id="svg" version="1.1" xmlns="http://www.w3.org/2000/svg" xmlns:xlink="http://www.w3.org/1999/xlink" width="400" height="392.7272727272727" viewBox="0, 0, 400,392.7272727272727"><g id="svgg"><path id="path0" d="M116.306 90.013 C 112.914 90.663,112.872 90.687,112.603 92.123 C 112.123 94.683,112.281 288.409,112.764 288.990 C 113.029 289.310,114.522 289.630,116.523 289.797 C 118.349 289.949,119.843 290.229,119.843 290.420 C 119.843 290.610,120.285 290.766,120.825 290.766 C 121.365 290.766,121.807 290.589,121.807 290.373 C 121.807 290.121,125.512 289.978,132.122 289.974 L 142.436 289.967 143.411 288.940 L 144.385 287.913 144.393 249.949 L 144.401 211.984 145.363 210.118 C 145.892 209.091,146.550 208.251,146.825 208.251 C 147.100 208.251,147.708 207.732,148.177 207.098 C 149.435 205.397,147.812 205.448,201.910 205.405 L 251.832 205.366 253.448 206.907 C 254.336 207.755,255.336 209.111,255.669 209.921 C 256.002 210.732,256.409 211.395,256.575 211.395 C 257.392 211.395,257.858 274.112,257.118 284.479 C 256.783 289.174,257.120 289.547,261.984 289.861 C 263.983 289.991,265.619 290.247,265.619 290.431 C 265.619 290.616,265.972 290.766,266.405 290.766 C 266.837 290.766,267.191 290.589,267.191 290.373 C 267.191 290.122,270.831 289.977,277.308 289.972 C 286.384 289.964,287.520 289.891,288.332 289.266 L 289.237 288.569 289.230 191.022 C 289.222 89.021,289.252 91.256,287.888 90.351 C 286.698 89.561,265.680 89.341,261.105 90.071 L 257.966 90.571 257.673 92.535 C 257.207 95.654,257.177 99.130,257.295 136.591 C 257.403 170.502,257.331 174.067,256.539 174.067 C 256.346 174.067,256.189 174.299,256.189 174.583 C 256.189 175.125,254.200 177.210,253.683 177.210 C 253.518 177.210,253.117 177.475,252.793 177.800 C 251.973 178.619,149.299 178.703,148.456 177.885 C 148.171 177.608,147.404 177.006,146.752 176.548 C 144.073 174.666,144.165 176.277,144.223 132.578 C 144.277 92.231,144.252 91.461,142.863 90.299 C 141.951 89.536,120.022 89.300,116.306 90.013 " stroke="none" fill="#ffffff" fill-rule="evenodd"></path><path id="path1" d="M112.339 84.464 C 109.262 84.779,107.805 85.863,107.251 88.248 C 107.043 89.145,106.891 131.600,106.886 190.204 C 106.875 298.791,106.785 293.988,108.854 295.095 C 109.279 295.323,109.627 295.774,109.627 296.099 C 109.627 298.048,112.373 298.386,128.372 298.408 L 143.384 298.428 145.169 297.454 C 146.151 296.918,146.955 296.327,146.955 296.141 C 146.955 295.954,147.311 295.349,147.745 294.797 C 148.180 294.244,148.645 293.111,148.778 292.279 C 148.911 291.447,149.146 290.766,149.300 290.766 C 150.516 290.766,150.591 288.608,150.513 255.846 C 150.439 224.596,150.332 221.455,149.315 220.827 C 149.128 220.711,148.918 219.119,148.849 217.289 L 148.723 213.961 150.491 213.690 C 153.966 213.155,251.397 213.310,251.733 213.851 C 251.901 214.121,252.044 231.670,252.050 252.849 C 252.063 291.527,252.154 294.303,253.404 294.303 C 253.582 294.303,254.177 294.982,254.727 295.814 C 256.371 298.299,257.320 298.428,273.870 298.428 C 288.171 298.428,288.217 298.426,289.784 297.514 C 291.925 296.269,293.509 293.898,293.791 291.515 C 293.916 290.455,294.171 289.587,294.357 289.587 C 294.545 289.587,294.695 245.377,294.695 189.980 C 294.695 123.838,294.563 90.373,294.303 90.373 C 294.086 90.373,293.910 89.831,293.910 89.169 C 293.910 84.552,292.063 84.085,273.870 84.106 C 257.785 84.124,255.572 84.328,253.878 85.947 C 251.863 87.873,251.807 89.160,251.894 132.220 C 251.937 153.615,251.850 171.473,251.702 171.906 C 251.405 172.775,152.229 173.007,151.693 172.140 C 151.569 171.938,150.851 171.715,150.099 171.643 L 148.730 171.513 148.862 168.402 C 148.939 166.600,149.202 165.084,149.488 164.798 C 150.324 163.962,150.475 158.444,150.507 127.505 C 150.548 86.983,150.632 90.907,149.705 89.980 C 149.273 89.548,148.919 88.751,148.919 88.209 C 148.919 86.411,146.951 84.869,144.138 84.462 C 141.326 84.055,116.312 84.057,112.339 84.464 M142.909 86.917 C 143.513 87.177,144.769 88.184,145.700 89.156 L 147.392 90.923 147.322 131.551 C 147.241 178.372,146.877 174.161,151.022 174.381 C 152.243 174.446,153.242 174.667,153.242 174.872 C 153.242 175.106,171.517 175.246,202.145 175.246 L 251.047 175.246 252.734 173.641 L 254.420 172.037 254.279 135.232 C 254.201 114.990,254.270 96.591,254.432 94.345 L 254.726 90.261 256.400 88.611 L 258.074 86.961 261.945 86.704 C 267.595 86.330,283.491 86.402,286.344 86.815 C 289.317 87.245,291.460 89.118,291.988 91.749 C 292.543 94.511,292.416 288.194,291.858 289.471 C 291.594 290.075,290.687 291.277,289.841 292.141 L 288.304 293.713 273.327 293.713 L 258.350 293.713 256.725 292.141 C 254.004 289.510,254.120 291.474,254.278 250.614 C 254.412 215.806,254.381 213.660,253.733 213.186 C 253.355 212.910,253.045 212.538,253.045 212.359 C 253.045 212.181,252.661 211.626,252.191 211.126 L 251.336 210.216 202.584 210.262 C 145.923 210.315,149.130 210.180,147.812 212.574 C 147.276 213.546,146.667 214.407,146.459 214.488 C 146.251 214.568,146.321 214.782,146.616 214.964 C 147.484 215.501,147.648 288.446,146.782 289.311 C 146.445 289.648,146.164 290.069,146.158 290.247 C 146.152 290.425,145.490 291.277,144.687 292.141 L 143.226 293.713 128.283 293.713 C 116.828 293.713,113.204 293.598,112.760 293.218 C 112.441 292.945,111.727 292.383,111.172 291.969 C 110.618 291.555,109.926 290.496,109.636 289.616 C 109.346 288.736,108.959 288.016,108.778 288.016 C 108.596 288.016,108.448 287.397,108.448 286.640 C 108.448 285.884,108.625 285.265,108.841 285.265 C 109.102 285.265,109.234 254.158,109.234 192.731 C 109.234 131.303,109.102 100.196,108.841 100.196 C 108.625 100.196,108.448 99.666,108.448 99.018 C 108.448 98.369,108.625 97.839,108.841 97.839 C 109.072 97.839,109.234 96.446,109.234 94.447 C 109.234 91.043,110.129 88.409,111.285 88.409 C 111.514 88.409,111.918 88.112,112.183 87.750 C 113.070 86.537,140.307 85.798,142.909 86.917 " stroke="none" fill="#2c2c2c" fill-rule="evenodd"></path><path id="path2" d="M115.566 86.825 C 113.534 87.012,112.520 87.289,112.183 87.750 C 111.918 88.112,111.514 88.409,111.285 88.409 C 110.129 88.409,109.234 91.043,109.234 94.447 C 109.234 96.446,109.072 97.839,108.841 97.839 C 108.625 97.839,108.448 98.369,108.448 99.018 C 108.448 99.666,108.625 100.196,108.841 100.196 C 109.102 100.196,109.234 131.303,109.234 192.731 C 109.234 254.158,109.102 285.265,108.841 285.265 C 108.625 285.265,108.448 285.884,108.448 286.640 C 108.448 287.397,108.596 288.016,108.778 288.016 C 108.959 288.016,109.346 288.736,109.636 289.616 C 109.926 290.496,110.618 291.555,111.172 291.969 C 111.727 292.383,112.441 292.945,112.760 293.218 C 113.204 293.598,116.828 293.713,128.283 293.713 L 143.226 293.713 144.687 292.141 C 145.490 291.277,146.152 290.425,146.158 290.247 C 146.164 290.069,146.445 289.648,146.782 289.311 C 147.648 288.446,147.484 215.501,146.616 214.964 C 146.321 214.782,146.251 214.568,146.459 214.488 C 146.667 214.407,147.276 213.546,147.812 212.574 C 149.130 210.180,145.923 210.315,202.584 210.262 L 251.336 210.216 252.191 211.126 C 252.661 211.626,253.045 212.181,253.045 212.359 C 253.045 212.538,253.355 212.910,253.733 213.186 C 254.381 213.660,254.412 215.806,254.278 250.614 C 254.120 291.474,254.004 289.510,256.725 292.141 L 258.350 293.713 273.327 293.713 L 288.304 293.713 289.841 292.141 C 290.687 291.277,291.594 290.075,291.858 289.471 C 292.416 288.194,292.543 94.511,291.988 91.749 C 291.460 89.118,289.317 87.245,286.344 86.815 C 283.491 86.402,267.595 86.330,261.945 86.704 L 258.074 86.961 256.400 88.611 L 254.726 90.261 254.432 94.345 C 254.270 96.591,254.201 114.990,254.279 135.232 L 254.420 172.037 252.734 173.641 L 251.047 175.246 202.145 175.246 C 171.517 175.246,153.242 175.106,153.242 174.872 C 153.242 174.667,152.243 174.446,151.022 174.381 C 146.877 174.161,147.241 178.372,147.322 131.551 L 147.392 90.923 145.700 89.156 C 144.769 88.184,143.513 87.177,142.909 86.917 C 141.709 86.401,120.951 86.332,115.566 86.825 M142.863 90.299 C 144.252 91.461,144.277 92.231,144.223 132.578 C 144.165 176.277,144.073 174.666,146.752 176.548 C 147.404 177.006,148.171 177.608,148.456 177.885 C 149.299 178.703,251.973 178.619,252.793 177.800 C 253.117 177.475,253.518 177.210,253.683 177.210 C 254.200 177.210,256.189 175.125,256.189 174.583 C 256.189 174.299,256.346 174.067,256.539 174.067 C 257.331 174.067,257.403 170.502,257.295 136.591 C 257.177 99.130,257.207 95.654,257.673 92.535 L 257.966 90.571 261.105 90.071 C 265.680 89.341,286.698 89.561,287.888 90.351 C 289.252 91.256,289.222 89.021,289.230 191.022 L 289.237 288.569 288.332 289.266 C 287.520 289.891,286.384 289.964,277.308 289.972 C 270.831 289.977,267.191 290.122,267.191 290.373 C 267.191 290.589,266.837 290.766,266.405 290.766 C 265.972 290.766,265.619 290.616,265.619 290.431 C 265.619 290.247,263.983 289.991,261.984 289.861 C 257.120 289.547,256.783 289.174,257.118 284.479 C 257.858 274.112,257.392 211.395,256.575 211.395 C 256.409 211.395,256.002 210.732,255.669 209.921 C 255.336 209.111,254.336 207.755,253.448 206.907 L 251.832 205.366 201.910 205.405 C 147.812 205.448,149.435 205.397,148.177 207.098 C 147.708 207.732,147.100 208.251,146.825 208.251 C 146.550 208.251,145.892 209.091,145.363 210.118 L 144.401 211.984 144.393 249.949 L 144.385 287.913 143.411 288.940 L 142.436 289.967 132.122 289.974 C 125.512 289.978,121.807 290.121,121.807 290.373 C 121.807 290.589,121.365 290.766,120.825 290.766 C 120.285 290.766,119.843 290.610,119.843 290.420 C 119.843 290.229,118.349 289.949,116.523 289.797 C 114.522 289.630,113.029 289.310,112.764 288.990 C 112.281 288.409,112.123 94.683,112.603 92.123 C 112.872 90.687,112.914 90.663,116.306 90.013 C 120.022 89.300,141.951 89.536,142.863 90.299 " stroke="none" fill="#f2f2f2" fill-rule="evenodd"></path><path id="path3" d="M0.000 196.464 L 0.000 392.927 200.000 392.927 L 400.000 392.927 400.000 196.464 L 400.000 0.000 200.000 0.000 L 0.000 0.000 0.000 196.464 M139.132 83.872 C 146.766 84.057,148.919 84.384,148.919 85.359 C 148.919 85.637,149.312 86.039,149.792 86.253 C 150.275 86.467,150.924 87.342,151.245 88.212 C 151.565 89.077,151.981 89.891,152.171 90.022 C 152.660 90.360,152.542 162.046,152.052 162.213 C 151.842 162.286,151.670 162.849,151.670 163.465 C 151.670 164.736,149.781 169.352,149.261 169.352 C 149.073 169.352,148.919 169.769,148.919 170.279 C 148.919 171.256,150.648 171.697,154.519 171.706 C 155.329 171.708,155.992 171.886,155.992 172.102 C 155.992 172.850,251.341 172.622,251.628 171.874 C 251.759 171.532,251.866 152.250,251.866 129.025 C 251.866 82.278,251.733 84.714,254.323 84.321 C 259.256 83.571,278.263 83.308,287.370 83.863 C 292.571 84.180,292.572 84.180,294.141 86.135 C 295.454 87.772,295.610 294.303,294.298 294.303 C 294.135 294.303,293.801 295.104,293.555 296.083 C 293.218 297.421,292.840 297.981,292.034 298.334 C 291.445 298.593,290.836 298.986,290.682 299.206 C 290.238 299.840,256.106 299.752,255.894 299.116 C 255.804 298.846,255.524 298.619,255.272 298.612 C 254.443 298.588,253.009 297.111,252.534 295.793 C 252.191 294.841,252.015 283.863,251.869 254.224 L 251.670 213.949 203.929 213.830 C 177.672 213.765,154.553 213.826,152.554 213.965 L 148.919 214.219 148.919 216.092 C 148.919 217.693,149.119 218.177,150.295 219.423 C 151.051 220.225,151.670 221.119,151.670 221.410 C 151.670 221.701,151.838 221.997,152.044 222.069 C 152.543 222.244,152.684 290.374,152.186 290.714 C 151.985 290.851,151.587 291.543,151.300 292.253 C 151.013 292.963,150.386 293.851,149.908 294.227 C 149.430 294.603,148.818 295.582,148.547 296.401 C 148.229 297.365,147.687 298.053,147.014 298.348 C 146.441 298.600,145.846 298.986,145.692 299.206 C 145.267 299.812,111.260 299.754,110.885 299.147 C 110.729 298.894,110.124 298.567,109.541 298.421 C 108.280 298.104,107.983 297.750,107.246 295.678 C 106.447 293.434,106.191 89.193,106.984 86.459 C 107.575 84.418,108.044 84.204,112.181 84.087 C 113.694 84.044,115.904 83.878,117.092 83.717 C 119.164 83.438,122.001 83.458,139.132 83.872 " stroke="none" fill="#141414" fill-rule="evenodd"></path><path id="path4" d="M117.289 83.730 C 116.208 83.858,121.424 83.970,128.880 83.979 C 136.336 83.988,142.171 83.937,141.847 83.866 C 140.714 83.618,119.236 83.499,117.289 83.730 M262.672 83.727 C 261.591 83.857,266.793 83.991,274.231 84.025 C 281.668 84.059,287.656 83.988,287.536 83.869 C 287.232 83.565,265.075 83.439,262.672 83.727 M108.461 84.435 C 106.383 85.014,106.467 80.219,106.581 191.159 C 106.671 279.012,106.768 294.337,107.246 295.678 C 107.983 297.750,108.280 298.104,109.541 298.421 C 110.124 298.567,110.729 298.894,110.885 299.147 C 111.260 299.754,145.267 299.812,145.692 299.206 C 145.846 298.986,146.441 298.600,147.014 298.348 C 147.687 298.053,148.229 297.365,148.547 296.401 C 148.818 295.582,149.430 294.603,149.908 294.227 C 150.386 293.851,151.013 292.963,151.300 292.253 C 151.587 291.543,151.985 290.851,152.186 290.714 C 152.684 290.374,152.543 222.244,152.044 222.069 C 151.838 221.997,151.670 221.749,151.670 221.517 C 151.670 220.932,149.748 218.468,149.292 218.468 C 149.087 218.468,148.919 218.998,148.919 219.646 C 148.919 220.295,149.083 220.825,149.282 220.825 C 150.333 220.825,150.462 224.479,150.526 255.992 C 150.591 288.599,150.515 290.766,149.300 290.766 C 149.146 290.766,148.911 291.447,148.778 292.279 C 148.645 293.111,148.180 294.244,147.745 294.797 C 147.311 295.349,146.955 295.954,146.955 296.141 C 146.955 296.327,146.151 296.918,145.169 297.454 L 143.384 298.428 128.372 298.408 C 112.373 298.386,109.627 298.048,109.627 296.099 C 109.627 295.774,109.279 295.323,108.854 295.095 C 106.785 293.988,106.875 298.791,106.886 190.204 C 106.891 131.600,107.043 89.145,107.251 88.248 C 107.805 85.863,109.262 84.779,112.339 84.464 L 114.931 84.198 112.181 84.181 C 110.668 84.172,108.994 84.286,108.461 84.435 M144.516 84.487 C 146.911 84.837,148.919 86.534,148.919 88.209 C 148.919 88.751,149.273 89.548,149.705 89.980 C 150.632 90.907,150.548 86.983,150.507 127.505 C 150.474 158.841,150.329 163.956,149.450 164.836 C 148.866 165.419,148.702 169.352,149.261 169.352 C 149.781 169.352,151.670 164.736,151.670 163.465 C 151.670 162.849,151.842 162.286,152.052 162.213 C 152.542 162.046,152.660 90.360,152.171 90.022 C 151.981 89.891,151.565 89.077,151.245 88.212 C 150.924 87.342,150.275 86.467,149.792 86.253 C 149.312 86.039,148.919 85.637,148.919 85.359 C 148.919 84.589,147.154 84.081,144.670 84.135 L 142.436 84.184 144.516 84.487 M253.727 84.358 C 252.541 84.668,251.862 86.584,251.916 89.470 L 251.966 92.141 252.289 89.649 C 252.733 86.227,254.118 84.858,257.531 84.467 L 259.921 84.194 257.171 84.186 C 255.658 84.181,254.109 84.259,253.727 84.358 M289.664 84.490 C 292.320 84.938,293.910 86.689,293.910 89.169 C 293.910 89.831,294.086 90.373,294.303 90.373 C 294.869 90.373,294.787 86.916,294.204 86.203 C 292.546 84.174,292.370 84.086,290.079 84.133 L 287.819 84.179 289.664 84.490 M294.695 190.111 C 294.695 245.434,294.545 289.587,294.357 289.587 C 294.171 289.587,293.916 290.455,293.791 291.515 C 293.509 293.898,291.925 296.269,289.784 297.514 C 288.217 298.426,288.171 298.428,273.870 298.428 C 257.320 298.428,256.371 298.299,254.727 295.814 C 254.177 294.982,253.585 294.303,253.412 294.303 C 253.006 294.303,252.619 293.057,252.255 290.584 L 251.964 288.605 251.920 290.963 C 251.845 294.904,253.447 298.560,255.272 298.612 C 255.524 298.619,255.804 298.846,255.894 299.116 C 256.106 299.752,290.238 299.840,290.682 299.206 C 290.836 298.986,291.445 298.593,292.034 298.334 C 292.840 297.981,293.218 297.421,293.555 296.083 C 293.801 295.104,294.135 294.303,294.298 294.303 C 295.000 294.303,295.601 91.540,294.900 90.840 C 294.788 90.727,294.695 135.399,294.695 190.111 M252.027 164.833 C 252.027 168.507,252.086 170.063,252.158 168.290 C 252.231 166.518,252.231 163.512,252.159 161.611 C 252.087 159.709,252.028 161.159,252.027 164.833 M148.625 170.923 C 148.721 171.280,149.355 171.561,150.227 171.635 C 151.021 171.702,151.670 171.923,151.670 172.126 C 151.670 172.329,152.642 172.495,153.831 172.495 C 157.224 172.495,156.358 171.853,152.572 171.562 C 150.600 171.411,149.007 171.095,148.809 170.817 C 148.561 170.466,148.510 170.496,148.625 170.923 M158.055 172.784 C 159.082 172.865,160.761 172.865,161.788 172.784 C 162.814 172.703,161.974 172.637,159.921 172.637 C 157.868 172.637,157.028 172.703,158.055 172.784 M240.590 172.788 C 242.708 172.859,246.068 172.859,248.056 172.788 C 250.044 172.716,248.310 172.658,244.204 172.659 C 240.098 172.659,238.472 172.717,240.590 172.788 M150.295 213.710 C 148.738 213.947,148.723 213.965,148.680 215.717 L 148.637 217.485 148.799 215.850 L 148.961 214.216 152.575 213.964 C 154.562 213.825,177.672 213.765,203.929 213.830 L 251.670 213.949 251.882 219.843 L 252.095 225.737 252.177 220.020 C 252.235 215.999,252.119 214.163,251.788 213.831 C 251.287 213.331,153.557 213.214,150.295 213.710 " stroke="none" fill="#1c1c1c" fill-rule="evenodd"></path></g></svg>