<svg xmlns="http://www.w3.org/2000/svg" width="400" height="392.727"><g fill-rule="evenodd"><path d="M116.306 90.013c-3.392.65-3.434.674-3.703 2.11-.48 2.56-.322 196.286.161 196.867.265.32 1.758.64 3.759.807 1.826.152 3.32.432 3.32.623 0 .19.442.346.982.346s.982-.177.982-.393c0-.252 3.705-.395 10.315-.399l10.314-.007.975-1.027.974-1.027.008-37.964.008-37.965.962-1.866c.529-1.027 1.187-1.867 1.462-1.867.275 0 .883-.519 1.352-1.153 1.258-1.701-.365-1.65 53.733-1.693l49.922-.039 1.616 1.541c.888.848 1.888 2.204 2.221 3.014.333.811.74 1.474.906 1.474.817 0 1.283 62.717.543 73.084-.335 4.695.002 5.068 4.866 5.382 1.999.13 3.635.386 3.635.57 0 .185.353.335.786.335.432 0 .786-.177.786-.393 0-.251 3.64-.396 10.117-.401 9.076-.008 10.212-.081 11.024-.706l.905-.697-.007-97.547c-.008-102.001.022-99.766-1.342-100.671-1.19-.79-22.208-1.01-26.783-.28l-3.139.5-.293 1.964c-.466 3.119-.496 6.595-.378 44.056.108 33.911.036 37.476-.756 37.476-.193 0-.35.232-.35.516 0 .542-1.989 2.627-2.506 2.627-.165 0-.566.265-.89.59-.82.819-103.494.903-104.337.085-.285-.277-1.052-.879-1.704-1.337-2.679-1.882-2.587-.271-2.529-43.97.054-40.347.029-41.117-1.36-42.279-.912-.763-22.841-.999-26.557-.286" fill="#fff"/><path d="M112.339 84.464c-3.077.315-4.534 1.399-5.088 3.784-.208.897-.36 43.352-.365 101.956-.011 108.587-.101 103.784 1.968 104.891.425.228.773.679.773 1.004 0 1.949 2.746 2.287 18.745 2.309l15.012.02 1.785-.974c.982-.536 1.786-1.127 1.786-1.313 0-.187.356-.792.79-1.344.435-.553.9-1.686 1.033-2.518.133-.832.368-1.513.522-1.513 1.216 0 1.291-2.158 1.213-34.92-.074-31.25-.181-34.391-1.198-35.019-.187-.116-.397-1.708-.466-3.538l-.126-3.328 1.768-.271c3.475-.535 100.906-.38 101.242.161.168.27.311 17.819.317 38.998.013 38.678.104 41.454 1.354 41.454.178 0 .773.679 1.323 1.511 1.644 2.485 2.593 2.614 19.143 2.614 14.301 0 14.347-.002 15.914-.914 2.141-1.245 3.725-3.616 4.007-5.999.125-1.06.38-1.928.566-1.928.188 0 .338-44.21.338-99.607 0-66.142-.132-99.607-.392-99.607-.217 0-.393-.542-.393-1.204 0-4.617-1.847-5.084-20.04-5.063-16.085.018-18.298.222-19.992 1.841-2.015 1.926-2.071 3.213-1.984 46.273.043 21.395-.044 39.253-.192 39.686-.297.869-99.473 1.101-100.009.234-.124-.202-.842-.425-1.594-.497l-1.369-.13.132-3.111c.077-1.802.34-3.318.626-3.604.836-.836.987-6.354 1.019-37.293.041-40.522.125-36.598-.802-37.525-.432-.432-.786-1.229-.786-1.771 0-1.798-1.968-3.34-4.781-3.747-2.812-.407-27.826-.405-31.799.002m30.57 2.453c.604.26 1.86 1.267 2.791 2.239l1.692 1.767-.07 40.628c-.081 46.821-.445 42.61 3.7 42.83 1.221.065 2.22.286 2.22.491 0 .234 18.275.374 48.903.374h48.902l1.687-1.605 1.686-1.604-.141-36.805c-.078-20.242-.009-38.641.153-40.887l.294-4.084 1.674-1.65 1.674-1.65 3.871-.257c5.65-.374 21.546-.302 24.399.111 2.973.43 5.116 2.303 5.644 4.934.555 2.762.428 196.445-.13 197.722-.264.604-1.171 1.806-2.017 2.67l-1.537 1.572H258.35l-1.625-1.572c-2.721-2.631-2.605-.667-2.447-41.527.134-34.808.103-36.954-.545-37.428-.378-.276-.688-.648-.688-.827 0-.178-.384-.733-.854-1.233l-.855-.91-48.752.046c-56.661.053-53.454-.082-54.772 2.312-.536.972-1.145 1.833-1.353 1.914-.208.08-.138.294.157.476.868.537 1.032 73.482.166 74.347-.337.337-.618.758-.624.936-.006.178-.668 1.03-1.471 1.894l-1.461 1.572h-14.943c-11.455 0-15.079-.115-15.523-.495a38.404 38.404 0 00-1.588-1.249c-.554-.414-1.246-1.473-1.536-2.353-.29-.88-.677-1.6-.858-1.6-.182 0-.33-.619-.33-1.376 0-.756.177-1.375.393-1.375.261 0 .393-31.107.393-92.534 0-61.428-.132-92.535-.393-92.535-.216 0-.393-.53-.393-1.178 0-.649.177-1.179.393-1.179.231 0 .393-1.393.393-3.392 0-3.404.895-6.038 2.051-6.038.229 0 .633-.297.898-.659.887-1.213 28.124-1.952 30.726-.833" fill="#2c2c2c"/><path d="M115.566 86.825c-2.032.187-3.046.464-3.383.925-.265.362-.669.659-.898.659-1.156 0-2.051 2.634-2.051 6.038 0 1.999-.162 3.392-.393 3.392-.216 0-.393.53-.393 1.179 0 .648.177 1.178.393 1.178.261 0 .393 31.107.393 92.535 0 61.427-.132 92.534-.393 92.534-.216 0-.393.619-.393 1.375 0 .757.148 1.376.33 1.376.181 0 .568.72.858 1.6.29.88.982 1.939 1.536 2.353.555.414 1.269.976 1.588 1.249.444.38 4.068.495 15.523.495h14.943l1.461-1.572c.803-.864 1.465-1.716 1.471-1.894.006-.178.287-.599.624-.936.866-.865.702-73.81-.166-74.347-.295-.182-.365-.396-.157-.476.208-.081.817-.942 1.353-1.914 1.318-2.394-1.889-2.259 54.772-2.312l48.752-.046.855.91c.47.5.854 1.055.854 1.233 0 .179.31.551.688.827.648.474.679 2.62.545 37.428-.158 40.86-.274 38.896 2.447 41.527l1.625 1.572h29.954l1.537-1.572c.846-.864 1.753-2.066 2.017-2.67.558-1.277.685-194.96.13-197.722-.528-2.631-2.671-4.504-5.644-4.934-2.853-.413-18.749-.485-24.399-.111l-3.871.257-1.674 1.65-1.674 1.65-.294 4.084c-.162 2.246-.231 20.645-.153 40.887l.141 36.805-1.686 1.604-1.687 1.605h-48.902c-30.628 0-48.903-.14-48.903-.374 0-.205-.999-.426-2.22-.491-4.145-.22-3.781 3.991-3.7-42.83l.07-40.628-1.692-1.767c-.931-.972-2.187-1.979-2.791-2.239-1.2-.516-21.958-.585-27.343-.092m27.297 3.474c1.389 1.162 1.414 1.932 1.36 42.279-.058 43.699-.15 42.088 2.529 43.97.652.458 1.419 1.06 1.704 1.337.843.818 103.517.734 104.337-.085.324-.325.725-.59.89-.59.517 0 2.506-2.085 2.506-2.627 0-.284.157-.516.35-.516.792 0 .864-3.565.756-37.476-.118-37.461-.088-40.937.378-44.056l.293-1.964 3.139-.5c4.575-.73 25.593-.51 26.783.28 1.364.905 1.334-1.33 1.342 100.671l.007 97.547-.905.697c-.812.625-1.948.698-11.024.706-6.477.005-10.117.15-10.117.401 0 .216-.354.393-.786.393-.433 0-.786-.15-.786-.335 0-.184-1.636-.44-3.635-.57-4.864-.314-5.201-.687-4.866-5.382.74-10.367.274-73.084-.543-73.084-.166 0-.573-.663-.906-1.474-.333-.81-1.333-2.166-2.221-3.014l-1.616-1.541-49.922.039c-54.098.043-52.475-.008-53.733 1.693-.469.634-1.077 1.153-1.352 1.153-.275 0-.933.84-1.462 1.867l-.962 1.866-.008 37.965-.008 37.964-.974 1.027-.975 1.027-10.314.007c-6.61.004-10.315.147-10.315.399 0 .216-.442.393-.982.393s-.982-.156-.982-.346c0-.191-1.494-.471-3.32-.623-2.001-.167-3.494-.487-3.759-.807-.483-.581-.641-194.307-.161-196.867.269-1.436.311-1.46 3.703-2.11 3.716-.713 25.645-.477 26.557.286" fill="#f2f2f2"/><path d="M0 196.464v196.463h400V0H0v196.464M139.132 83.872c7.634.185 9.787.512 9.787 1.487 0 .278.393.68.873.894.483.214 1.132 1.089 1.453 1.959.32.865.736 1.679.926 1.81.489.338.371 72.024-.119 72.191-.21.073-.382.636-.382 1.252 0 1.271-1.889 5.887-2.409 5.887-.188 0-.342.417-.342.927 0 .977 1.729 1.418 5.6 1.427.81.002 1.473.18 1.473.396 0 .748 95.349.52 95.636-.228.131-.342.238-19.624.238-42.849 0-46.747-.133-44.311 2.457-44.704 4.933-.75 23.94-1.013 33.047-.458 5.201.317 5.202.317 6.771 2.272 1.313 1.637 1.469 208.168.157 208.168-.163 0-.497.801-.743 1.78-.337 1.338-.715 1.898-1.521 2.251-.589.259-1.198.652-1.352.872-.444.634-34.576.546-34.788-.09-.09-.27-.37-.497-.622-.504-.829-.024-2.263-1.501-2.738-2.819-.343-.952-.519-11.93-.665-41.569l-.199-40.275-47.741-.119c-26.257-.065-49.376-.004-51.375.135l-3.635.254v1.873c0 1.601.2 2.085 1.376 3.331.756.802 1.375 1.696 1.375 1.987 0 .291.168.587.374.659.499.175.64 68.305.142 68.645-.201.137-.599.829-.886 1.539-.287.71-.914 1.598-1.392 1.974-.478.376-1.09 1.355-1.361 2.174-.318.964-.86 1.652-1.533 1.947-.573.252-1.168.638-1.322.858-.425.606-34.432.548-34.807-.059-.156-.253-.761-.58-1.344-.726-1.261-.317-1.558-.671-2.295-2.743-.799-2.244-1.055-206.485-.262-209.219.591-2.041 1.06-2.255 5.197-2.372 1.513-.043 3.723-.209 4.911-.37 2.072-.279 4.909-.259 22.04.155" fill="#141414"/><path d="M117.289 83.73c-1.081.128 4.135.24 11.591.249 7.456.009 13.291-.042 12.967-.113-1.133-.248-22.611-.367-24.558-.136m145.383-.003c-1.081.13 4.121.264 11.559.298 7.437.034 13.425-.037 13.305-.156-.304-.304-22.461-.43-24.864-.142m-154.211.708c-2.078.579-1.994-4.216-1.88 106.724.09 87.853.187 103.178.665 104.519.737 2.072 1.034 2.426 2.295 2.743.583.146 1.188.473 1.344.726.375.607 34.382.665 34.807.059.154-.22.749-.606 1.322-.858.673-.295 1.215-.983 1.533-1.947.271-.819.883-1.798 1.361-2.174.478-.376 1.105-1.264 1.392-1.974.287-.71.685-1.402.886-1.539.498-.34.357-68.47-.142-68.645-.206-.072-.374-.32-.374-.552 0-.585-1.922-3.049-2.378-3.049-.205 0-.373.53-.373 1.178 0 .649.164 1.179.363 1.179 1.051 0 1.18 3.654 1.244 35.167.065 32.607-.011 34.774-1.226 34.774-.154 0-.389.681-.522 1.513-.133.832-.598 1.965-1.033 2.518-.434.552-.79 1.157-.79 1.344 0 .186-.804.777-1.786 1.313l-1.785.974-15.012-.02c-15.999-.022-18.745-.36-18.745-2.309 0-.325-.348-.776-.773-1.004-2.069-1.107-1.979 3.696-1.968-104.891.005-58.604.157-101.059.365-101.956.554-2.385 2.011-3.469 5.088-3.784l2.592-.266-2.75-.017c-1.513-.009-3.187.105-3.72.254m36.055.052c2.395.35 4.403 2.047 4.403 3.722 0 .542.354 1.339.786 1.771.927.927.843-2.997.802 37.525-.033 31.336-.178 36.451-1.057 37.331-.584.583-.748 4.516-.189 4.516.52 0 2.409-4.616 2.409-5.887 0-.616.172-1.179.382-1.252.49-.167.608-71.853.119-72.191-.19-.131-.606-.945-.926-1.81-.321-.87-.97-1.745-1.453-1.959-.48-.214-.873-.616-.873-.894 0-.77-1.765-1.278-4.249-1.224l-2.234.049 2.08.303m109.211-.129c-1.186.31-1.865 2.226-1.811 5.112l.05 2.671.323-2.492c.444-3.422 1.829-4.791 5.242-5.182l2.39-.273-2.75-.008c-1.513-.005-3.062.073-3.444.172m35.937.132c2.656.448 4.246 2.199 4.246 4.679 0 .662.176 1.204.393 1.204.566 0 .484-3.457-.099-4.17-1.658-2.029-1.834-2.117-4.125-2.07l-2.26.046 1.845.311m5.031 105.621c0 55.323-.15 99.476-.338 99.476-.186 0-.441.868-.566 1.928-.282 2.383-1.866 4.754-4.007 5.999-1.567.912-1.613.914-15.914.914-16.55 0-17.499-.129-19.143-2.614-.55-.832-1.142-1.511-1.315-1.511-.406 0-.793-1.246-1.157-3.719l-.291-1.979-.044 2.358c-.075 3.941 1.527 7.597 3.352 7.649.252.007.532.234.622.504.212.636 34.344.724 34.788.09.154-.22.763-.613 1.352-.872.806-.353 1.184-.913 1.521-2.251.246-.979.58-1.78.743-1.78.702 0 1.303-202.763.602-203.463-.112-.113-.205 44.559-.205 99.271m-42.668-25.278c0 3.674.059 5.23.131 3.457.073-1.772.073-4.778.001-6.679-.072-1.902-.131-.452-.132 3.222m-103.402 6.09c.096.357.73.638 1.602.712.794.067 1.443.288 1.443.491s.972.369 2.161.369c3.393 0 2.527-.642-1.259-.933-1.972-.151-3.565-.467-3.763-.745-.248-.351-.299-.321-.184.106m9.43 1.861c1.027.081 2.706.081 3.733 0 1.026-.081.186-.147-1.867-.147s-2.893.066-1.866.147m82.535.004c2.118.071 5.478.071 7.466 0 1.988-.072.254-.13-3.852-.129-4.106 0-5.732.058-3.614.129m-90.295 40.922c-1.557.237-1.572.255-1.615 2.007l-.043 1.768.162-1.635.162-1.634 3.614-.252c1.987-.139 25.097-.199 51.354-.134l47.741.119.212 5.894.213 5.894.082-5.717c.058-4.021-.058-5.857-.389-6.189-.501-.5-98.231-.617-101.493-.121" fill="#1c1c1c"/></g></svg>